<svg xmlns="http://www.w3.org/2000/svg" viewBox="0 0 85.16 85.53"><defs><style>.cls-1{fill:#f65762;}</style></defs><title>burger</title><g id="Layer_2" data-name="Layer 2"><g id="CONTENT_-_WHAT_IS_MEALSTERS_" data-name="CONTENT - WHAT IS MEALSTERS?"><g id="ICONS"><g id="burger"><path class="cls-1" d="M6.47,57.49C2,56.63,0,54.14,0,49.62A11.84,11.84,0,0,1,.47,45.9a6.62,6.62,0,0,1,5.8-4.57V34.17A6.46,6.46,0,0,1,2,30.65,7.14,7.14,0,0,1,1.44,26C3.23,17.06,7.69,9.86,15.31,4.78A28.19,28.19,0,0,1,31.23,0c7.82,0,15.64-.1,23.46,0a27.53,27.53,0,0,1,17.92,7A32,32,0,0,1,83.37,26.47,6.63,6.63,0,0,1,79,34.05c-.08,0-.15.08-.25.13v7.15a6.37,6.37,0,0,1,5.61,4,10.34,10.34,0,0,1-.06,8.32c-.93,2.11-2.46,3.11-5.44,3.86v.84c0,1.57.07,3.14,0,4.69a3.42,3.42,0,0,0,1.63,3.63,5.38,5.38,0,0,1,2.25,5.3,47.09,47.09,0,0,1-.9,5.79,9.71,9.71,0,0,1-9.89,7.81H13a9.74,9.74,0,0,1-9.72-7.68,45,45,0,0,1-.9-5.52A6.31,6.31,0,0,1,6,65.61.84.84,0,0,0,6.45,65C6.48,62.51,6.47,60,6.47,57.49ZM42.36,32.16c11.46,0,22.92,0,34.38,0a4.57,4.57,0,0,0,4.51-5.5,59.86,59.86,0,0,0-1.72-6.06C75.29,9.46,65.25,2.27,53.78,2.19c-7.61,0-15.22,0-22.83,0A25.16,25.16,0,0,0,18.67,5.26C10.28,9.88,5.42,17.07,3.57,26.38c-.68,3.41,1.31,5.78,4.77,5.78Zm0,51.23H72a7.65,7.65,0,0,0,7.71-6.17c.38-1.79.65-3.61.85-5.43a4,4,0,0,0-4-4.49c-4.26.11-8.54,0-12.81,0a1.66,1.66,0,0,0-1.39.6c-2.62,2.86-5.26,5.7-7.9,8.55-1,1.08-1.43,1.09-2.41,0-2.68-2.88-5.36-5.77-8.06-8.64a1.62,1.62,0,0,0-1-.51q-17.41,0-34.82,0a3.57,3.57,0,0,0-1.9.66,3.88,3.88,0,0,0-1.69,3.76c.15,1.49.42,3,.62,4.46a8.06,8.06,0,0,0,8.53,7.2C23.22,83.27,32.81,83.39,42.41,83.39Zm0-28.13q17.73,0,35.46,0a4.65,4.65,0,0,0,5-4.77,22.91,22.91,0,0,0,0-2.62,4.63,4.63,0,0,0-4.29-4.35c-.59-.05-1.19,0-1.79,0q-17.15,0-34.29,0a2,2,0,0,0-1.31.52c-2.7,2.83-5.35,5.71-8,8.57-.94,1-1.42,1-2.35,0-2.55-2.73-5.11-5.44-7.62-8.2a2.58,2.58,0,0,0-2.16-1c-4.75.06-9.5.06-14.25,0a4.38,4.38,0,0,0-3.93,2.27c-.82,1.32-.7,2.77-.7,4.21,0,3.43,1.88,5.28,5.29,5.28ZM8.69,57.46v7.73H9.83q16.7,0,33.38,0a2.38,2.38,0,0,1,2,.85c1.22,1.37,2.49,2.7,3.74,4l4.27,4.56c2.71-2.92,5.37-5.74,8-8.6a2.4,2.4,0,0,1,2-.85c4.16,0,8.31,0,12.46,0,.34,0,.69,0,1.06,0V57.46M8.52,41.31h1c4.18,0,8.36,0,12.54,0a2.33,2.33,0,0,1,1.88.83c2.44,2.66,4.91,5.28,7.36,7.93a4.81,4.81,0,0,1,.5.82C34.68,47.8,37.33,45,40,42.11a2.28,2.28,0,0,1,1.87-.82q16.78,0,33.56,0h1.1v-7h-68Z"/><path class="cls-1" d="M35.34,11.35a3.52,3.52,0,0,1-.75-.45,15,15,0,0,1-1.17-1.46A1,1,0,0,1,33.61,8a1,1,0,0,1,1.44.1,8.94,8.94,0,0,1,1.19,1.56,1.27,1.27,0,0,1,0,1.06C36.1,11,35.67,11.14,35.34,11.35Z"/><path class="cls-1" d="M56.13,10.54a1.78,1.78,0,0,1-.64-.33A12,12,0,0,1,54.3,8.75a1,1,0,0,1,.2-1.44,1,1,0,0,1,1.44.13,11.89,11.89,0,0,1,1.17,1.48C57.6,9.66,57.14,10.52,56.13,10.54Z"/><path class="cls-1" d="M66.62,12.17c0,.91-.88,1-1.53,1.3s-1.22.63-1.83.06a1,1,0,0,1,.1-1.58,9.4,9.4,0,0,1,2.06-.88C66,10.89,66.6,11.42,66.62,12.17Z"/><path class="cls-1" d="M39,18.8c-.35-.4-.8-.71-.87-1.08a1.33,1.33,0,0,1,.49-1.1,5.58,5.58,0,0,1,1.89-.77,1.16,1.16,0,0,1,1,.44c.17.31.16,1,0,1.19A21.08,21.08,0,0,1,39,18.8Z"/><path class="cls-1" d="M22.36,10.5c-.08.12-.2.45-.43.57a6.9,6.9,0,0,1-2,.79,1.3,1.3,0,0,1-1.09-.64A1.45,1.45,0,0,1,19.27,10a5.09,5.09,0,0,1,1.81-.74C21.87,9,22.47,9.58,22.36,10.5Z"/><path class="cls-1" d="M52.34,14.2a10.59,10.59,0,0,1,1.62.29,1,1,0,0,1,.68,1.28.94.94,0,0,1-1.22.75c-.52-.12-1.06-.17-1.59-.27a1,1,0,0,1-.91-1.13C51,14.47,51.44,14.15,52.34,14.2Z"/><path class="cls-1" d="M46.73,8.63c.32.35.77.63.83,1a1.43,1.43,0,0,1-.47,1.13,4.44,4.44,0,0,1-1.8.77A1.41,1.41,0,0,1,44.12,11a1.17,1.17,0,0,1,.15-1.18A16.14,16.14,0,0,1,46.73,8.63Z"/><path class="cls-1" d="M27.75,16.65c-.56-.09-1.13-.14-1.68-.27a1,1,0,0,1,.33-2.07,13.83,13.83,0,0,1,1.68.23A1,1,0,0,1,29,15.75,1,1,0,0,1,27.75,16.65Z"/></g></g></g></g></svg>