<svg xmlns="http://www.w3.org/2000/svg" viewBox="0 0 101.82 88.9"><defs><style>.cls-1{fill:#f65762;}</style></defs><title>chicken</title><g id="Layer_2" data-name="Layer 2"><g id="CONTENT_-_WHAT_IS_MEALSTERS_" data-name="CONTENT - WHAT IS MEALSTERS?"><g id="ICONS"><g id="chicken"><path class="cls-1" d="M20,14l4.65,12.48c3.16-1.08,3.62,1.5,4.54,3.36,16-9.45,32.37-10.44,48.29-.54s22.4,24.88,20.68,43.59c.7,0,1.42,0,2.13,0,1.12,0,1.57.5,1.55,1.62a9.25,9.25,0,0,1-8.18,8.66c-2.83.17-5.67.12-8.5.1-.92,0-1.21.28-1.15,1.17s0,2,0,3.06a1.25,1.25,0,0,1-1.37,1.35h-54c-1.73,0-2-.23-2-1.94,0-1.2,0-2.39,0-3.73-1,0-1.87,0-2.76,0A58.15,58.15,0,0,1,16.21,83,9.07,9.07,0,0,1,9,74.23c0-1.11.41-1.58,1.58-1.58,2.65,0,5.3,0,8,0h1.33c-1.58-1.14-3.06-2-4.35-3.16a19.6,19.6,0,0,1-4.95-23.39c1.66-3.53,2.58-7.09,1.61-11q-.07-.32-.18-.63c-.7-2.37-.48-2.91,1.72-4.19L9.21,18.16a21,21,0,0,1-3.67-.33A7.31,7.31,0,1,1,9.1,3.65,1.46,1.46,0,0,0,10.86,3,6.93,6.93,0,0,1,18.28.21,6.81,6.81,0,0,1,23.84,6C24.46,9.42,23.16,12.15,20,14ZM95.43,72.9c2.46-13.28-2.74-31.42-19.29-41.63-15.54-9.59-34-7-45.21,1,1.62,2.08,3.85,3.23,6.17,4.32C44.31,40,48.35,45.78,48.73,53.69c.4,8.12-3.21,14.34-10.2,18.56l-1.06.65ZM14.54,33.07c.23,1.51.54,2.9.65,4.3.33,3.81-.83,7.29-2.4,10.7a15.6,15.6,0,0,0-1.16,9.38,17,17,0,0,0,13.85,14.3,16.36,16.36,0,0,0,16.45-5.42A16.6,16.6,0,0,0,45.4,49.06a16.9,16.9,0,0,0-9.59-10.28,18.31,18.31,0,0,1-8.13-6.51c-.68-1-1.23-2.12-1.88-3.27ZM98.93,75.44H11.8a6.6,6.6,0,0,0,6.47,5.34c2.22,0,4.44,0,6.66,0q33.75,0,67.5,0A6.32,6.32,0,0,0,98.93,75.44ZM22.21,27.35a2.11,2.11,0,0,0-.05-.37q-2.34-6.43-4.69-12.87c-.55-1.53-.42-1.85,1.05-2.52a4.61,4.61,0,0,0,2.81-5.13,4.81,4.81,0,0,0-9.19-.94c-.68,1.64-1,1.75-2.58,1a4.83,4.83,0,0,0-5.79,1,4.89,4.89,0,0,0-.54,5.77,5,5,0,0,0,5.63,2c1.48-.43,1.89-.24,2.41,1.13,1.48,3.9,3,7.8,4.44,11.7.16.42.35.84.57,1.32Zm59.3,56.08h-52v3.08h52Z"/></g></g></g></g></svg>