<svg xmlns="http://www.w3.org/2000/svg" viewBox="0 0 110.96 109.72"><defs><style>.cls-1{fill:#f65762;}</style></defs><title>eggs</title><g id="Layer_2" data-name="Layer 2"><g id="CONTENT_-_WHAT_IS_MEALSTERS_" data-name="CONTENT - WHAT IS MEALSTERS?"><g id="ICONS"><g id="eggs"><path class="cls-1" d="M70.3,47.11a6,6,0,0,1,1.34.83q5.24,5.61,10.42,11.27c.82.9.69,1.43-.07,2.38a27,27,0,0,0-3.4,4.68A20.44,20.44,0,0,1,67.35,76.64a15.25,15.25,0,0,0-8.74,8.12c-2.36,5.18-6.36,8.43-11.6,10.39a15,15,0,0,0-7.9,7c-1.36,2.43-2.52,5-4.67,6.87-1.15,1-1.6,1-2.65-.13l-10-10.74c-1.25-1.35-1.25-1.9.1-3.13,1.8-1.64,2.75-3.82,3.86-5.91a17,17,0,0,1,8.79-8c3.23-1.33,6.3-2.82,8.41-5.69a44.5,44.5,0,0,0,2.84-4.68,18,18,0,0,1,9.06-8.22,18.62,18.62,0,0,0,8-5.47,21.17,21.17,0,0,0,2.32-3.78,17.56,17.56,0,0,1,4-5.43A8.71,8.71,0,0,1,70.3,47.11Zm5.34,9.27c-.73,1-1.39,1.81-1.9,2.69-.77,1.31-1.35,2.74-2.17,4a19.65,19.65,0,0,1-9.85,7.66,15.84,15.84,0,0,0-8.53,7.89,30.31,30.31,0,0,1-1.6,2.91,20.41,20.41,0,0,1-10.16,7.82,15.31,15.31,0,0,0-8.06,7.11c-1.07,1.88-2.3,3.67-3.42,5.53a1.1,1.1,0,0,0-.07,1c1,1.18,2.08,2.3,3.37,3.69,1-1.55,1.91-2.88,2.64-4.32,2.27-4.5,5.53-8,10.32-9.72A17.86,17.86,0,0,0,56.52,83,17,17,0,0,1,66,74.28a17.45,17.45,0,0,0,8.64-6.49c1.6-2.44,3-5,4.49-7.68Zm-5.53-5.94c-1,1.75-2,3.16-2.79,4.67a18.76,18.76,0,0,1-10,9.38c-4.29,1.67-7.71,4.31-9.67,8.57A19.82,19.82,0,0,1,35.86,83.61a15.13,15.13,0,0,0-7.6,6.5c-1.26,2-2.53,4.06-3.75,6.12a1.07,1.07,0,0,0,0,1c1,1.15,2,2.24,3.12,3.42a4,4,0,0,0,.72-.68,40,40,0,0,0,2.31-3.79A17.5,17.5,0,0,1,40.32,87a18.26,18.26,0,0,0,10.57-9.53c2.31-4.83,6.25-7.83,11.17-9.75a15.53,15.53,0,0,0,7.9-7c1.1-1.91,2.33-3.74,3.47-5.62.15-.25.28-.74.16-.88C72.56,53.06,71.46,51.9,70.11,50.44Z"/><path class="cls-1" d="M61.38,0c.38.19.85.28,1.09.56,1.84,2.1,4.3,3.24,6.67,4.54a17.77,17.77,0,0,1,8,9.21c1.68,4.12,4.11,7.68,8.24,9.54A19.92,19.92,0,0,1,96.27,35.71c1.47,3.95,4.42,6.65,8.16,8.59A54.45,54.45,0,0,1,110.2,48c1,.72,1,1.57,0,2.46L99.16,60.71c-1.25,1.16-1.82,1.18-3-.05-1.71-1.84-4-2.82-6.09-4A18.2,18.2,0,0,1,81.78,47a17.11,17.11,0,0,0-9.3-10,16.73,16.73,0,0,1-8.85-9.46,18.14,18.14,0,0,0-7.21-9.18c-1.77-1.11-3.65-2.05-5.42-3.17a10,10,0,0,1-2-1.85,1.51,1.51,0,0,1,.08-2.41Q54.71,5.67,60.42.45A3.91,3.91,0,0,1,61.38,0Zm46.15,49.42a29.84,29.84,0,0,0-3.48-2.28A19.89,19.89,0,0,1,93.2,35.65a16.07,16.07,0,0,0-8.65-9.15,18.58,18.58,0,0,1-3-1.74,19.8,19.8,0,0,1-6.92-9.32A16.08,16.08,0,0,0,67.61,7.3C65.5,6,63.35,4.85,61.05,3.53L57.27,7.08a49.57,49.57,0,0,0,4.32,2.65,19.38,19.38,0,0,1,10,10.84,16.38,16.38,0,0,0,8.6,9.21,19.85,19.85,0,0,1,3.15,1.85,20.5,20.5,0,0,1,7,9.56A15.9,15.9,0,0,0,98,49.58c1.7.92,3.28,2.07,5,3.06a1.14,1.14,0,0,0,1,0C105.13,51.7,106.19,50.66,107.53,49.42Zm-5.83,5.41A34.26,34.26,0,0,0,98,52.48,19.76,19.76,0,0,1,87.39,41.11,16.09,16.09,0,0,0,78.85,32a18.35,18.35,0,0,1-9.6-10.26A17.08,17.08,0,0,0,62,12.88c-2.17-1.31-4.39-2.55-6.77-3.92l-3.78,3.52a36,36,0,0,0,3.68,2.34A19.88,19.88,0,0,1,65.75,26.08a16.36,16.36,0,0,0,8.65,9.17A18.54,18.54,0,0,1,84,45.65a17.18,17.18,0,0,0,8,9.3c1.73.93,3.34,2.1,5.05,3.1a1.25,1.25,0,0,0,1.13,0C99.35,57.1,100.38,56.07,101.7,54.83Z"/><path class="cls-1" d="M47.3,30.62c-.49,3.68,1.07,6.45,3.64,9a11.1,11.1,0,0,1-4.56,18.54c-.76.24-1.53.47-2.3.67a8.23,8.23,0,0,0-5.66,4.6,12.35,12.35,0,0,1-6.78,6.76,11.45,11.45,0,0,1-13.45-4.26c-.51-.77-.94-1.58-1.49-2.31a8.51,8.51,0,0,0-6.3-3.45,10.85,10.85,0,0,1-9.32-6.79C-.69,49.24-.35,45.23,2.6,41.86A11.81,11.81,0,0,0,5.5,31.63,10.7,10.7,0,0,1,10.15,21,10.44,10.44,0,0,1,21.5,20a8.67,8.67,0,0,0,8.83-.32,11.25,11.25,0,0,1,16.94,7.73A18,18,0,0,1,47.3,30.62Zm-30.3-9c-3.68.16-7.33,2.64-8.29,6.14a11.59,11.59,0,0,0-.22,4.73A13,13,0,0,1,5.05,43.59a7.84,7.84,0,0,0-1.38,8.75C5,55.55,7.5,57.19,10.91,57.73a18.88,18.88,0,0,1,4.86,1.5c2.36,1.08,3.61,3.3,4.94,5.4A7.77,7.77,0,0,0,28,68.38a8.5,8.5,0,0,0,7.7-5.44,11.78,11.78,0,0,1,9-6.92,7.83,7.83,0,0,0,6.48-5.91,8.56,8.56,0,0,0-2.68-9c-3.11-2.85-4.58-6.3-3.76-10.58a5.3,5.3,0,0,0,0-1.82,8.52,8.52,0,0,0-12.85-6.37,11.74,11.74,0,0,1-11.57.35A23.15,23.15,0,0,0,17,21.66Z"/><path class="cls-1" d="M39.37,43.24c0,7-5.3,12.17-12.45,12.14a12.09,12.09,0,0,1,.13-24.17C34.11,31.26,39.41,36.44,39.37,43.24ZM18,43.13a9.45,9.45,0,0,0,9.43,9.49,9.34,9.34,0,0,0,9.25-9.29,9.11,9.11,0,0,0-9-9.49A9.32,9.32,0,0,0,18,43.13Z"/></g></g></g></g></svg>