<svg xmlns="http://www.w3.org/2000/svg" viewBox="0 0 82.46 82.31"><defs><style>.cls-1{fill:#f65762;}</style></defs><title>hotdog</title><g id="Layer_2" data-name="Layer 2"><g id="CONTENT_-_WHAT_IS_MEALSTERS_" data-name="CONTENT - WHAT IS MEALSTERS?"><g id="ICONS"><g id="hotdog"><path class="cls-1" d="M6,19.66A9.75,9.75,0,0,1,19.69,6c.8-.82,1.6-1.68,2.44-2.51,4.6-4.61,10.93-4.63,15.52-.05l41.41,41.3c4.4,4.38,4.66,11.18,0,15.46-.87.8-1.7,1.64-2.59,2.5A9.74,9.74,0,0,1,62.81,76.35c-.88.9-1.78,1.83-2.69,2.75a10.46,10.46,0,0,1-15.25-.2Q25.69,59.78,6.5,40.64a51,51,0,0,1-4.31-4.52,10.16,10.16,0,0,1,.71-13.4C3.88,21.68,4.93,20.71,6,19.66ZM69.3,76.33a7.27,7.27,0,0,0,6.16-3.75c1.83-3,1.22-6.64-1.5-9.36L27.72,17c-2.95-2.95-5.84-6-8.87-8.83A7.48,7.48,0,0,0,7.12,10.05c-1.65,3-1.08,6.37,1.57,9Q27.58,38,46.45,56.89q8.49,8.49,17,17A7.87,7.87,0,0,0,69.3,76.33ZM21.57,7.6,75.11,61.09c.73-.76,1.52-1.6,2.33-2.41,3.65-3.67,3.64-8.49,0-12.16L47.35,16.47c-4-4-8-8.1-12.12-12.06A7.67,7.67,0,0,0,24.85,4.1,45,45,0,0,0,21.57,7.6ZM7.39,21.31c-.71.74-1.43,1.6-2.25,2.35A8.42,8.42,0,0,0,5.13,36c13.76,13.62,27.41,27.36,41.1,41.06.29.29.57.58.88.84a8.16,8.16,0,0,0,7.48,1.83c2.89-.67,4.45-3,6.39-4.84Z"/><path class="cls-1" d="M24.45,28c.16-1.7.35-3.15.41-4.6a2.86,2.86,0,0,0-3.14-3.21c-1.67.05-3.34.31-5,.39a4.16,4.16,0,0,1-3.2-1.29,1.08,1.08,0,0,1-.23-1.57,1,1,0,0,1,1.62-.11,3.65,3.65,0,0,0,3.23.79c.83-.16,1.66-.27,2.49-.39,4.05-.58,6.88,2.21,6.42,6.34-.11.93-.26,1.85-.41,2.77A3.08,3.08,0,0,0,30,31.05c1.61-.05,3.22-.4,4.83-.38a4.84,4.84,0,0,1,4.86,4.88,30.47,30.47,0,0,1-.29,3.15,16.28,16.28,0,0,0-.11,2.51,3,3,0,0,0,3.4,2.5c1.09-.08,2.16-.27,3.24-.44a5.31,5.31,0,0,1,6.36,6c-.12,1.14-.26,2.28-.36,3.42a3.11,3.11,0,0,0,3.63,3.59c.83-.09,1.66-.22,2.49-.37,3-.56,5.52.5,6.46,3.08a11.32,11.32,0,0,1,.32,3.74,13.24,13.24,0,0,1-.35,2.4,3.07,3.07,0,0,0,.7,2.69c.49.59.72,1.2,0,1.8s-1.18.28-1.82-.5c-1.41-1.73-1.2-3.7-.89-5.7a19.58,19.58,0,0,0,.27-2.4,2.87,2.87,0,0,0-2.9-3c-1.49,0-3,.31-4.46.4-2.57.15-4.53-.94-5.31-3.23a11.75,11.75,0,0,1-.27-3.67,19.67,19.67,0,0,1,.35-2.39,3.14,3.14,0,0,0-3.48-3.76c-1.3.07-2.59.35-3.89.46a5,5,0,0,1-5.38-3.29,9,9,0,0,1-.29-3.12,25.71,25.71,0,0,1,.4-2.87,3.17,3.17,0,0,0-3.71-3.79c-1.08.11-2.16.33-3.24.46a5.11,5.11,0,0,1-5.82-3.45A8.38,8.38,0,0,1,24.45,28Z"/></g></g></g></g></svg>