<svg xmlns="http://www.w3.org/2000/svg" viewBox="0 0 390.72 382.09"><defs><style>.cls-1{fill:#f65762;}</style></defs><title>icons</title><g id="Layer_2" data-name="Layer 2"><g id="CONTENT_-_WHAT_IS_MEALSTERS_" data-name="CONTENT - WHAT IS MEALSTERS?"><g id="ICONS"><g id="eggs"><path class="cls-1" d="M261.67,47.11a6,6,0,0,1,1.34.83q5.24,5.61,10.42,11.27c.82.9.69,1.43-.07,2.38a27,27,0,0,0-3.4,4.68,20.46,20.46,0,0,1-11.23,10.37A15.24,15.24,0,0,0,250,84.76c-2.36,5.18-6.36,8.43-11.6,10.39a15,15,0,0,0-7.9,7c-1.36,2.43-2.52,5-4.67,6.87-1.15,1-1.6,1-2.65-.13l-10-10.74c-1.25-1.35-1.25-1.9.1-3.13,1.8-1.64,2.75-3.82,3.86-5.91a17,17,0,0,1,8.79-8c3.23-1.33,6.3-2.82,8.41-5.69a44.5,44.5,0,0,0,2.84-4.68,18,18,0,0,1,9.06-8.22,18.62,18.62,0,0,0,8-5.47,21.17,21.17,0,0,0,2.32-3.78,17.56,17.56,0,0,1,4-5.43A8.71,8.71,0,0,1,261.67,47.11ZM267,56.38c-.73,1-1.39,1.81-1.9,2.69-.77,1.31-1.35,2.74-2.17,4a19.65,19.65,0,0,1-9.85,7.66,15.84,15.84,0,0,0-8.53,7.89,30.31,30.31,0,0,1-1.6,2.91,20.41,20.41,0,0,1-10.16,7.82,15.31,15.31,0,0,0-8.06,7.11c-1.07,1.88-2.3,3.67-3.42,5.53a1.1,1.1,0,0,0-.07,1c1,1.18,2.08,2.3,3.37,3.69,1-1.55,1.91-2.88,2.64-4.32,2.27-4.5,5.53-8,10.32-9.72A17.86,17.86,0,0,0,247.89,83a17,17,0,0,1,9.46-8.71A17.45,17.45,0,0,0,266,67.79c1.6-2.44,3-5,4.49-7.68Zm-5.53-5.94c-1.05,1.75-2,3.16-2.79,4.67a18.76,18.76,0,0,1-10,9.38c-4.29,1.67-7.71,4.31-9.67,8.57a19.82,19.82,0,0,1-11.75,10.55,15.13,15.13,0,0,0-7.6,6.5c-1.26,2-2.53,4.06-3.75,6.12a1.07,1.07,0,0,0,0,1c1,1.15,2,2.24,3.12,3.42a4,4,0,0,0,.72-.68A40,40,0,0,0,222,96.15,17.5,17.5,0,0,1,231.69,87a18.26,18.26,0,0,0,10.57-9.53c2.31-4.83,6.25-7.83,11.18-9.75a15.55,15.55,0,0,0,7.89-7c1.1-1.91,2.33-3.74,3.47-5.62.15-.25.28-.74.16-.88C263.93,53.06,262.83,51.9,261.48,50.44Z"/><path class="cls-1" d="M252.75,0c.38.19.85.28,1.09.56,1.84,2.1,4.3,3.24,6.67,4.54a17.77,17.77,0,0,1,8,9.21c1.68,4.12,4.11,7.68,8.24,9.54a19.92,19.92,0,0,1,10.85,11.86c1.47,3.95,4.42,6.65,8.16,8.59A54.45,54.45,0,0,1,301.57,48c1,.72,1,1.57,0,2.46L290.53,60.71c-1.25,1.16-1.82,1.18-3-.05-1.71-1.84-3.95-2.82-6.09-4A18.2,18.2,0,0,1,273.15,47a17.11,17.11,0,0,0-9.3-10A16.73,16.73,0,0,1,255,27.54a18.14,18.14,0,0,0-7.21-9.18c-1.77-1.11-3.65-2.05-5.42-3.17a10.33,10.33,0,0,1-2-1.85,1.51,1.51,0,0,1,.08-2.41Q246.08,5.67,251.79.45A3.91,3.91,0,0,1,252.75,0ZM298.9,49.42a29.84,29.84,0,0,0-3.48-2.28,19.89,19.89,0,0,1-10.85-11.49,16.07,16.07,0,0,0-8.65-9.15A18.58,18.58,0,0,1,273,24.76a19.8,19.8,0,0,1-6.92-9.32A16,16,0,0,0,259,7.3c-2.11-1.26-4.26-2.45-6.56-3.77l-3.78,3.55A49.57,49.57,0,0,0,253,9.73a19.35,19.35,0,0,1,10,10.84,16.41,16.41,0,0,0,8.6,9.21,19.85,19.85,0,0,1,3.15,1.85,20.5,20.5,0,0,1,7,9.56,15.9,15.9,0,0,0,7.74,8.39c1.7.92,3.28,2.07,4.95,3.06a1.14,1.14,0,0,0,1,0C296.5,51.7,297.56,50.66,298.9,49.42Zm-5.82,5.41a34.35,34.35,0,0,0-3.67-2.35,19.76,19.76,0,0,1-10.65-11.37A16.09,16.09,0,0,0,270.22,32a18.35,18.35,0,0,1-9.6-10.26,17.08,17.08,0,0,0-7.25-8.86C251.2,11.57,249,10.33,246.6,9l-3.78,3.52a36,36,0,0,0,3.68,2.34,19.88,19.88,0,0,1,10.62,11.26,16.36,16.36,0,0,0,8.65,9.17,18.54,18.54,0,0,1,9.62,10.4,17.18,17.18,0,0,0,8.05,9.3c1.73.93,3.34,2.1,5.05,3.1a1.25,1.25,0,0,0,1.13,0C290.72,57.1,291.75,56.07,293.08,54.83Z"/><path class="cls-1" d="M238.67,30.62c-.49,3.68,1.07,6.45,3.64,9a11.1,11.1,0,0,1-4.56,18.54c-.76.24-1.53.47-2.3.67a8.23,8.23,0,0,0-5.66,4.6A12.35,12.35,0,0,1,223,70.14a11.45,11.45,0,0,1-13.45-4.26c-.51-.77-.94-1.58-1.49-2.31a8.51,8.51,0,0,0-6.3-3.45,10.85,10.85,0,0,1-9.32-6.79c-1.77-4.09-1.43-8.1,1.52-11.47a11.81,11.81,0,0,0,2.9-10.23A10.7,10.7,0,0,1,201.52,21a10.44,10.44,0,0,1,11.35-1,8.67,8.67,0,0,0,8.83-.32,11.24,11.24,0,0,1,16.94,7.73A18,18,0,0,1,238.67,30.62Zm-30.3-9c-3.68.16-7.33,2.64-8.29,6.14a11.59,11.59,0,0,0-.22,4.73,13,13,0,0,1-3.44,11.06A7.84,7.84,0,0,0,195,52.34c1.33,3.21,3.83,4.85,7.24,5.39a18.88,18.88,0,0,1,4.86,1.5c2.36,1.08,3.61,3.3,4.94,5.4a7.77,7.77,0,0,0,7.27,3.75,8.5,8.5,0,0,0,7.7-5.44,11.78,11.78,0,0,1,9-6.92,7.83,7.83,0,0,0,6.48-5.91,8.56,8.56,0,0,0-2.68-9c-3.11-2.85-4.58-6.3-3.76-10.58a5.3,5.3,0,0,0,0-1.82,8.52,8.52,0,0,0-12.85-6.37,11.74,11.74,0,0,1-11.57.35A23.15,23.15,0,0,0,208.37,21.66Z"/><path class="cls-1" d="M230.74,43.24c0,7-5.3,12.17-12.45,12.14a12.09,12.09,0,0,1,.13-24.17C225.48,31.26,230.78,36.44,230.74,43.24Zm-21.37-.11a9.46,9.46,0,0,0,9.43,9.49,9.34,9.34,0,0,0,9.25-9.29,9.11,9.11,0,0,0-9-9.49A9.32,9.32,0,0,0,209.37,43.13Z"/></g><g id="hotdog"><path class="cls-1" d="M314.26,113.57A9.75,9.75,0,0,1,328,99.9c.8-.83,1.6-1.69,2.43-2.52,4.61-4.6,10.93-4.62,15.53,0l41.41,41.29c4.4,4.38,4.66,11.19,0,15.46-.87.8-1.7,1.64-2.6,2.51a9.73,9.73,0,0,1-13.66,13.66l-2.7,2.75a10.45,10.45,0,0,1-15.24-.19l-38.38-38.26a54.19,54.19,0,0,1-4.31-4.53,10.16,10.16,0,0,1,.71-13.4C312.14,115.6,313.19,114.62,314.26,113.57Zm63.3,56.68a7.29,7.29,0,0,0,6.16-3.75c1.82-3.05,1.21-6.64-1.5-9.36L336,110.88c-3-2.95-5.85-5.95-8.87-8.83A7.49,7.49,0,0,0,315.38,104c-1.66,3-1.08,6.37,1.57,9l37.76,37.81q8.48,8.49,17,17A7.88,7.88,0,0,0,377.56,170.25Zm-47.73-68.74L383.36,155c.74-.75,1.52-1.59,2.34-2.41,3.65-3.67,3.64-8.48,0-12.16q-15-15-30.06-30.05c-4-4-8-8.1-12.12-12A7.67,7.67,0,0,0,333.11,98,41.46,41.46,0,0,0,329.83,101.51Zm-14.19,13.72c-.7.74-1.42,1.6-2.24,2.35a8.42,8.42,0,0,0,0,12.34c13.77,13.62,27.42,27.36,41.11,41.05.29.29.56.59.87.85a8.2,8.2,0,0,0,7.49,1.83c2.88-.67,4.45-3,6.39-4.85Z"/><path class="cls-1" d="M332.71,121.94c.16-1.7.34-3.15.41-4.61a2.87,2.87,0,0,0-3.14-3.21c-1.68.06-3.34.31-5,.4a4.21,4.21,0,0,1-3.19-1.29,1.11,1.11,0,0,1-.24-1.58,1,1,0,0,1,1.63-.11,3.61,3.61,0,0,0,3.23.79c.82-.15,1.66-.27,2.49-.39,4.05-.57,6.87,2.22,6.41,6.35-.1.93-.25,1.85-.41,2.77a3.09,3.09,0,0,0,3.36,3.91c1.61-.06,3.22-.4,4.82-.39a4.84,4.84,0,0,1,4.86,4.89c0,1-.2,2.1-.28,3.15a15,15,0,0,0-.12,2.5,3,3,0,0,0,3.41,2.5c1.08-.07,2.16-.27,3.24-.43a5.29,5.29,0,0,1,6.35,6c-.11,1.14-.25,2.28-.36,3.43a3.1,3.1,0,0,0,3.63,3.58c.84-.08,1.67-.22,2.49-.37,3-.56,5.52.5,6.47,3.08a11.62,11.62,0,0,1,.32,3.75,13.16,13.16,0,0,1-.36,2.39,3.11,3.11,0,0,0,.7,2.7c.49.58.73,1.2,0,1.79-.54.47-1.18.29-1.81-.49-1.41-1.73-1.21-3.71-.9-5.71A17.63,17.63,0,0,0,371,155a2.85,2.85,0,0,0-2.9-3c-1.48,0-3,.31-4.45.4-2.57.15-4.54-1-5.31-3.24a11.4,11.4,0,0,1-.27-3.66,19.83,19.83,0,0,1,.35-2.4,3.14,3.14,0,0,0-3.48-3.76c-1.3.07-2.59.35-3.89.47a5,5,0,0,1-5.39-3.3,9.24,9.24,0,0,1-.28-3.12,25.5,25.5,0,0,1,.39-2.86,3.18,3.18,0,0,0-3.71-3.8c-1.08.12-2.15.34-3.23.46a5.09,5.09,0,0,1-5.82-3.44A7.87,7.87,0,0,1,332.71,121.94Z"/></g><g id="pizza"><path class="cls-1" d="M137.47,104.22c0,2.08,0,2.16-1.64,2.83Q91.45,125.4,47.06,143.76c-4.77,2-8.73-1-9.17-4.7a8.72,8.72,0,0,1,.63-4c5.09-13.08,10.27-26.13,15.41-39.2Q64,70.41,74,45a2,2,0,0,1,2.21-1.52,39,39,0,0,1,13.24,2.88C98,49.66,105.31,54.9,112.09,61a90.75,90.75,0,0,1,18.65,22.56,50.92,50.92,0,0,1,6.45,17.69c0,.25.08.49.1.74C137.36,102.83,137.43,103.68,137.47,104.22Zm-64-46.76c-.88,0-1.6-.21-2,.86Q56.14,97.23,40.79,136.1a7.35,7.35,0,0,0-.46,1.63c-.34,2.63,2.41,5.07,5.68,3.71q38.16-15.84,76.39-31.53a1.65,1.65,0,0,0,1.18-2,38,38,0,0,0-3.69-12.93c-4.11-8.71-10.16-15.94-17.22-22.39a62.88,62.88,0,0,0-20.2-13A35,35,0,0,0,73.43,57.46Zm52.83,50.83c2.57-1.06,5.08-2.14,7.62-3.09.92-.35,1.1-.8,1-1.73A45.82,45.82,0,0,0,129.68,87a84.83,84.83,0,0,0-17.63-22.67c-6.69-6.31-14-11.67-22.56-15.23A41.41,41.41,0,0,0,77.59,46c-.88-.08-1.4.06-1.73,1-.6,1.82-1.37,3.58-2.07,5.36-.32.81-.62,1.63-.94,2.46,1.25.15,2.39.24,3.51.43a44.43,44.43,0,0,1,16.58,6.64,84.36,84.36,0,0,1,24.6,23.71,49.18,49.18,0,0,1,7.92,17.55C125.81,104.83,126,106.52,126.26,108.29Z"/><path class="cls-1" d="M92.28,92.56a8.86,8.86,0,1,1,17.72,0,8.86,8.86,0,0,1-17.72,0Zm2.53,0a6.32,6.32,0,1,0,6.33-6.4A6.37,6.37,0,0,0,94.81,92.51Z"/><path class="cls-1" d="M69.24,103.54a7.65,7.65,0,1,1,7.7-7.62A7.68,7.68,0,0,1,69.24,103.54Zm-5.06-7.73a5.11,5.11,0,1,0,5.15-5A5.12,5.12,0,0,0,64.18,95.81Z"/><path class="cls-1" d="M72.86,109.26A6.78,6.78,0,0,1,79.73,116a6.82,6.82,0,1,1-13.63,0A6.73,6.73,0,0,1,72.86,109.26Zm-4.22,6.82a4.24,4.24,0,0,0,4.29,4.24,4.27,4.27,0,1,0-4.29-4.24Z"/><path class="cls-1" d="M78.44,85.67a6.74,6.74,0,0,1-6.8-6.49A6.85,6.85,0,0,1,78.37,72a6.92,6.92,0,0,1,6.89,6.71A6.79,6.79,0,0,1,78.44,85.67Zm4.28-6.83a4.37,4.37,0,0,0-4.27-4.27,4.29,4.29,0,1,0,4.27,4.27Z"/><path class="cls-1" d="M48.37,127a5.79,5.79,0,1,1,5.94,5.8A5.73,5.73,0,0,1,48.37,127Zm2.54-.13a3.25,3.25,0,1,0,3.37-3.11A3.22,3.22,0,0,0,50.91,126.82Z"/><path class="cls-1" d="M92.13,103.94a5.79,5.79,0,1,1-5.79,5.82A5.75,5.75,0,0,1,92.13,103.94Zm3.26,5.78a3.25,3.25,0,1,0-6.5,0,3.25,3.25,0,0,0,6.5,0Z"/></g><g id="burger"><path class="cls-1" d="M151.37,199.12c-4.46-.86-6.52-3.34-6.47-7.87a12.46,12.46,0,0,1,.47-3.72,6.63,6.63,0,0,1,5.8-4.56V175.8a6.46,6.46,0,0,1-4.28-3.52,7.14,7.14,0,0,1-.55-4.66c1.79-8.92,6.25-16.13,13.88-21.2a28.09,28.09,0,0,1,15.91-4.75c7.82,0,15.64-.1,23.46,0a27.54,27.54,0,0,1,17.92,7,32,32,0,0,1,10.76,19.37,6.62,6.62,0,0,1-4.41,7.58,1.66,1.66,0,0,0-.25.14V183a6.39,6.39,0,0,1,5.61,4,10.34,10.34,0,0,1-.06,8.32c-.93,2.11-2.46,3.12-5.44,3.86V200c0,1.56.07,3.13,0,4.69a3.41,3.41,0,0,0,1.63,3.62,5.38,5.38,0,0,1,2.25,5.31,45.1,45.1,0,0,1-.9,5.78,9.71,9.71,0,0,1-9.89,7.81H157.88a9.75,9.75,0,0,1-9.72-7.68,44.53,44.53,0,0,1-.89-5.51,6.3,6.3,0,0,1,3.66-6.73.85.85,0,0,0,.42-.57C151.38,204.15,151.37,201.63,151.37,199.12Zm35.89-25.33c11.46,0,22.92,0,34.38,0a4.57,4.57,0,0,0,4.51-5.5,56.52,56.52,0,0,0-1.72-6.05c-4.24-11.19-14.28-18.38-25.74-18.46-7.61,0-15.22,0-22.83,0a25.28,25.28,0,0,0-12.29,3.08c-8.38,4.63-13.25,11.81-15.1,21.12-.67,3.41,1.31,5.78,4.77,5.78Q170.25,173.81,187.26,173.79Zm.05,51.23H216.9a7.64,7.64,0,0,0,7.71-6.17,49.83,49.83,0,0,0,.85-5.43,4.05,4.05,0,0,0-4.05-4.49c-4.26.11-8.53,0-12.8,0a1.73,1.73,0,0,0-1.4.6c-2.62,2.87-5.26,5.7-7.9,8.55-1,1.08-1.43,1.09-2.41,0-2.68-2.89-5.35-5.78-8.06-8.65a1.66,1.66,0,0,0-1.05-.51q-17.41,0-34.82,0a3.6,3.6,0,0,0-1.9.66,3.88,3.88,0,0,0-1.69,3.76c.15,1.5.42,3,.62,4.46a8.06,8.06,0,0,0,8.53,7.2C168.12,224.91,177.71,225,187.31,225Zm0-28.12H222.8a4.65,4.65,0,0,0,5-4.77,20.83,20.83,0,0,0,0-2.62,4.61,4.61,0,0,0-4.29-4.34,17.75,17.75,0,0,0-1.79,0q-17.15,0-34.29,0a2,2,0,0,0-1.31.53c-2.7,2.83-5.35,5.7-8,8.56-1,1-1.42,1-2.36,0-2.55-2.73-5.11-5.43-7.62-8.2a2.59,2.59,0,0,0-2.15-.95c-4.76.06-9.51,0-14.26,0a4.36,4.36,0,0,0-3.92,2.28c-.83,1.31-.71,2.76-.71,4.2,0,3.43,1.88,5.29,5.3,5.29Zm-33.75,2.19v7.73h1.14q16.7,0,33.39,0a2.39,2.39,0,0,1,2,.85c1.22,1.37,2.49,2.7,3.74,4l4.27,4.56c2.71-2.91,5.37-5.74,8-8.6a2.41,2.41,0,0,1,2-.85c4.15,0,8.3,0,12.45,0,.34,0,.69,0,1.06,0v-7.68m-68.13-16.15h1c4.18,0,8.36,0,12.54,0a2.33,2.33,0,0,1,1.88.83c2.44,2.66,4.91,5.28,7.36,7.93a4.81,4.81,0,0,1,.5.82c2.86-3.07,5.52-5.9,8.13-8.76a2.28,2.28,0,0,1,1.87-.82q16.78,0,33.56,0h1.1V176h-68Z"/><path class="cls-1" d="M180.24,153a3.52,3.52,0,0,1-.75-.45,15,15,0,0,1-1.17-1.46,1,1,0,0,1,.19-1.44,1,1,0,0,1,1.44.1,9,9,0,0,1,1.2,1.56,1.3,1.3,0,0,1,0,1.06C181,152.64,180.57,152.77,180.24,153Z"/><path class="cls-1" d="M201,152.17a1.78,1.78,0,0,1-.63-.32,12,12,0,0,1-1.2-1.47,1,1,0,0,1,.21-1.44.94.94,0,0,1,1.43.13,13,13,0,0,1,1.18,1.48C202.5,151.29,202.05,152.15,201,152.17Z"/><path class="cls-1" d="M211.52,153.8c0,.92-.88,1-1.53,1.31s-1.22.62-1.83,0a1,1,0,0,1,.1-1.57,9.17,9.17,0,0,1,2.06-.89C210.93,152.52,211.5,153.06,211.52,153.8Z"/><path class="cls-1" d="M183.94,160.43c-.34-.4-.8-.7-.87-1.08a1.37,1.37,0,0,1,.49-1.1,5.63,5.63,0,0,1,1.9-.77,1.18,1.18,0,0,1,1,.44c.17.32.16,1,0,1.19A19,19,0,0,1,183.94,160.43Z"/><path class="cls-1" d="M167.26,152.14c-.08.12-.2.45-.43.56a6.9,6.9,0,0,1-2,.79,1.29,1.29,0,0,1-1.09-.63,1.46,1.46,0,0,1,.42-1.28,5.28,5.28,0,0,1,1.81-.74C166.77,150.64,167.37,151.21,167.26,152.14Z"/><path class="cls-1" d="M197.24,155.83a10.9,10.9,0,0,1,1.63.29,1,1,0,0,1,.68,1.28,1,1,0,0,1-1.23.75c-.52-.12-1.06-.17-1.59-.27a1,1,0,0,1-.91-1.12C195.89,156.1,196.34,155.78,197.24,155.83Z"/><path class="cls-1" d="M191.63,150.26c.32.35.77.64.83,1a1.41,1.41,0,0,1-.47,1.13,4.31,4.31,0,0,1-1.8.77,1.41,1.41,0,0,1-1.17-.51,1.2,1.2,0,0,1,.15-1.18A18.26,18.26,0,0,1,191.63,150.26Z"/><path class="cls-1" d="M172.65,158.28c-.56-.08-1.13-.14-1.68-.27a1,1,0,0,1-.82-1.19,1,1,0,0,1,1.15-.88,15.77,15.77,0,0,1,1.68.23,1,1,0,0,1,.91,1.21A1,1,0,0,1,172.65,158.28Z"/></g><g id="ramen"><path class="cls-1" d="M203.16,382.09H175.31c-1.73,0-2-.23-2.11-2q-1.32-18.51-2.64-37c-.6-8.41-1.19-16.82-1.86-25.23a4.54,4.54,0,0,1,1-3.07q4.76-7.11,9.38-14.3a2.26,2.26,0,0,1,2.17-1.16q21.75,0,43.52,0a2.36,2.36,0,0,1,2.1,1.08q5.12,6.93,10.32,13.8a3.46,3.46,0,0,1,.77,2.71c-.54,5.31-.86,10.65-1.26,16q-.93,12.21-1.84,24.4-.84,11.53-1.62,23.07c-.1,1.38-.47,1.76-2,1.76ZM233,318H174.06l29.45,29Zm-57,59.4,25.41-28.51-29.55-29Zm59-57.38-29.26,28.87,25.12,27.24C232.16,357.31,233.52,338.85,234.91,320Zm-5.08,59.16c-8.86-9.56-17.56-18.95-26.32-28.42L178,379.17ZM234,315c-3-4.11-5.95-8-8.81-11.91a1.94,1.94,0,0,0-1.77-.92q-20.56,0-41.12,0a1.7,1.7,0,0,0-1.66.86c-2.31,3.62-4.68,7.21-7,10.81-.22.34-.42.7-.69,1.15Z"/><path class="cls-1" d="M195.62,284.4l-11.76-2.94-27.78-6.95c-.46-.12-1.05-.25-1.27-.58s-.47-1.31-.26-1.5a2.52,2.52,0,0,1,1.83-.67c2.86.6,5.69,1.36,8.53,2.08q22.25,5.58,44.48,11.15a10.83,10.83,0,0,0,2.27.27q18.43.54,36.88,1.05a3.85,3.85,0,0,1,.48,0c.89.08,1.76.27,1.69,1.41s-.83,1.35-1.79,1.32c-5.7-.16-11.41-.33-17.11-.45-2.45-.06-4.9,0-7.62,0l1.21.34,22.06,5.54c1.3.32,1.76.87,1.56,1.84s-1,1.3-2.34,1L221.58,291c-3.62-.91-7.23-1.84-10.86-2.72a10.91,10.91,0,0,0-2.14-.28l-52.65-1.64-.85,0A1.31,1.31,0,0,1,153.7,285a1.39,1.39,0,0,1,1.39-1.5,11.93,11.93,0,0,1,1.69,0l38.2,1.14h.59Z"/><path class="cls-1" d="M191.77,350c-.64,0-1.28,0-1.92,0a1.36,1.36,0,0,1-1.44-1.43,1.24,1.24,0,0,1,1.32-1.39c1.32-.06,2.64-.06,4,0a1.42,1.42,0,0,1-.12,2.84Z"/><path class="cls-1" d="M215,350c-.68,0-1.37,0-2,0a1.26,1.26,0,0,1-1.28-1.33,1.24,1.24,0,0,1,1.15-1.44,41.09,41.09,0,0,1,4.44,0c.79,0,1.15.69,1.1,1.47A1.26,1.26,0,0,1,217,350c-.68,0-1.36,0-2,0Z"/></g><g id="stick"><path class="cls-1" d="M342.86,269.66l-2.6,3c.29.31.58.65.89.95,3,3,6,5.93,8.92,8.92a5.7,5.7,0,0,1,.63,7.73,5.91,5.91,0,0,1-8.67.46c-3.07-3-6.08-6-9.11-9.08a8.58,8.58,0,0,1-.72-.9l-2.34,2.13c1.89,1.86,3.73,3.62,5.5,5.45a8.8,8.8,0,0,1,.08,12.46,8.36,8.36,0,0,1-11.71.4c-2.05-1.9-3.9-4-5.72-5.92l-16.72,16.68c2.74,5.58,1.9,10.41-2.47,13.4a9.62,9.62,0,0,1-12.31-1.41,9.47,9.47,0,0,1-.44-12.63A9.62,9.62,0,0,1,299,309.51l16.7-16.69c-1.67-1.66-3.46-3.41-5.2-5.2a8.89,8.89,0,0,1-.45-12.39,8.7,8.7,0,0,1,12.5-.26c1.87,1.79,3.65,3.67,5.46,5.5l2.09-2.05.44-.39a4.56,4.56,0,0,1-1.2-.63c-3-3-6.05-6-9-9a5.66,5.66,0,0,1,4.46-9.7,6.15,6.15,0,0,1,4,2.14c3.15,3.31,6.33,6.6,9.53,9.94l2.87-2.58c-1.84-1.83-3.75-3.69-5.61-5.59a8.74,8.74,0,1,1,12.14-12.57c1.86,1.75,3.61,3.62,5.41,5.44l2.47-2.53c-3.16-3.12-6.38-6.31-9.61-9.48a6,6,0,0,1-2.07-4.69,5.32,5.32,0,0,1,3.2-4.9,5.19,5.19,0,0,1,6,.73c2.3,2.07,4.42,4.33,6.61,6.51l4,4,2.49-3.13c-1.48-1.47-3.25-3.22-5-5a8.66,8.66,0,0,1-2.5-8.37,8,8,0,0,1,5.72-6.24,8.43,8.43,0,0,1,8.74,1.86c1.95,1.83,3.77,3.81,5.79,5.87.76-.8,1.42-1.51,2.1-2.19q3.13-3.17,6.28-6.31c1.15-1.14,1.88-1.29,2.61-.53s.55,1.45-.61,2.61q-3.7,3.74-7.42,7.45c-.28.29-.55.59-.89,1,1.86,1.85,3.71,3.61,5.48,5.45a8.73,8.73,0,1,1-12.19,12.5c-1.87-1.8-3.64-3.7-5.4-5.49L366,247.32c1.62,1.62,3.26,3.29,4.91,4.94s3.22,3.19,4.82,4.8a5.87,5.87,0,0,1,1.78,5.63,5.31,5.31,0,0,1-4,4.13,5.49,5.49,0,0,1-5.7-1.39q-4.53-4.49-9-9a12.29,12.29,0,0,1-1-1.23l-2.52,2.64c1.72,1.71,3.48,3.43,5.21,5.18a8.6,8.6,0,0,1,2.49,8.36,8.26,8.26,0,0,1-5.77,6.38,7.93,7.93,0,0,1-8.36-1.86C346.8,273.86,344.84,271.69,342.86,269.66ZM330,300.27a5.8,5.8,0,0,0,4.86-3.49,5.47,5.47,0,0,0-1.27-6.47q-6.51-6.58-13.1-13.08a6.75,6.75,0,0,0-2.24-1.47,5.6,5.6,0,0,0-6.7,2.28,5.9,5.9,0,0,0,.84,7.46c4.34,4.4,8.71,8.75,13.09,13.1A5.82,5.82,0,0,0,330,300.27Zm31.59-70.53a5.73,5.73,0,0,0,1.6,4.51c4.46,4.45,8.9,8.93,13.4,13.35a6.13,6.13,0,0,0,2.27,1.42,5.74,5.74,0,0,0,6.79-2.67,5.61,5.61,0,0,0-1-7q-5.28-5.31-10.58-10.58a38.65,38.65,0,0,0-3.21-3.07,5.23,5.23,0,0,0-5.92-.63A5.4,5.4,0,0,0,361.56,229.74Zm-.93,39.51a5.32,5.32,0,0,0-1.56-4c-4.43-4.48-8.86-9-13.34-13.4a5.61,5.61,0,0,0-8-.21,5.87,5.87,0,0,0-.21,8.35q6.64,6.82,13.46,13.46a5.17,5.17,0,0,0,6.08,1A5.44,5.44,0,0,0,360.63,269.25Zm-11.14,16.82a12.56,12.56,0,0,0-1.44-2Q337.57,273.47,327,263a6.34,6.34,0,0,0-1.34-1.09,2.69,2.69,0,0,0-4,1.58,2.94,2.94,0,0,0,1,3.22q8.91,8.82,17.79,17.66c1.4,1.39,2.79,2.8,4.22,4.16a2.66,2.66,0,0,0,3.19.53C348.88,288.56,349.51,287.82,349.49,286.07ZM372,263.74c1.57-.12,2.47-.65,2.95-1.7.64-1.4-.07-2.46-1-3.41Q363.07,247.8,352.23,237c-1.41-1.42-3-1.45-4.34-.15a2.76,2.76,0,0,0,.22,4.16q11.06,11,22.18,21.85A5.88,5.88,0,0,0,372,263.74Zm-85.16,53.65a6.46,6.46,0,0,0,6.52,6.64,6.72,6.72,0,0,0,6.79-6.71,6.66,6.66,0,1,0-13.31.07Z"/><path class="cls-1" d="M328.86,246.36a6.39,6.39,0,0,1-6-4.76c-.64-2.41.56-4.88,3-6.5a5.74,5.74,0,0,0,1.84-2.18,2.4,2.4,0,0,0-.59-2.94,2.76,2.76,0,0,0-2.95-.73c-.23.09-.52.26-.7.19-.59-.24-1.45-.46-1.61-.9a1.91,1.91,0,0,1,.67-1.69,5.33,5.33,0,0,1,6.48.89c1.89,1.71,2.69,4.51,1.58,6.48a12.25,12.25,0,0,1-2.75,3.05c-.82.71-1.71,1.28-1.9,2.45a3,3,0,0,0,3.71,3.45c.31-.07.68-.31.94-.22.56.2,1.4.48,1.5.89a2,2,0,0,1-.62,1.72A10,10,0,0,1,328.86,246.36Z"/><path class="cls-1" d="M310.84,245.39a5.81,5.81,0,0,1,3-4.41,3.41,3.41,0,0,0,2-3,3,3,0,0,0-3.74-3c-1.74.37-2.41.16-2.61-.86s.47-1.67,2-2a6.14,6.14,0,0,1,7,3.52,5.77,5.77,0,0,1-2.28,7.23c-.34.23-.73.39-1.07.62a3,3,0,0,0-1,3.83,3,3,0,0,0,3.46,1.69l.6-.16c.86-.26,1.59-.1,1.92.79s-.19,1.54-1,1.93C315.39,253.21,310.83,250.13,310.84,245.39Z"/></g><g id="chicken"><path class="cls-1" d="M20,223.45l4.65,12.49c3.16-1.09,3.62,1.49,4.54,3.36,16-9.46,32.37-10.45,48.29-.55s22.4,24.88,20.68,43.59c.7,0,1.42,0,2.13,0,1.12,0,1.57.51,1.55,1.62a9.25,9.25,0,0,1-8.18,8.66c-2.83.17-5.67.13-8.5.1-.92,0-1.21.28-1.15,1.18s0,2,0,3a1.25,1.25,0,0,1-1.37,1.35h-54c-1.73,0-2-.22-2-1.94,0-1.19,0-2.39,0-3.73-1,0-1.87,0-2.76,0a56.5,56.5,0,0,1-7.71-.27A9.06,9.06,0,0,1,9,283.65c0-1.12.41-1.58,1.58-1.59,2.65,0,5.3,0,8,0h1.33c-1.58-1.14-3.06-2-4.35-3.16a19.6,19.6,0,0,1-4.95-23.39c1.66-3.52,2.58-7.08,1.61-11q-.07-.31-.18-.63c-.7-2.37-.48-2.91,1.72-4.18L9.21,227.57a21,21,0,0,1-3.67-.33A7.31,7.31,0,1,1,9.1,213.06a1.46,1.46,0,0,0,1.76-.69,6.93,6.93,0,0,1,7.42-2.75,6.83,6.83,0,0,1,5.56,5.75C24.46,218.83,23.16,221.56,20,223.45Zm75.45,58.86c2.46-13.28-2.74-31.41-19.29-41.63-15.54-9.59-34-7-45.21,1,1.62,2.07,3.85,3.22,6.17,4.31,7.21,3.4,11.25,9.17,11.63,17.08.4,8.12-3.21,14.35-10.2,18.56l-1.06.65ZM14.54,242.48c.23,1.51.54,2.9.65,4.3.33,3.81-.83,7.29-2.4,10.7a15.61,15.61,0,0,0-1.16,9.38,17,17,0,0,0,13.85,14.3,16.36,16.36,0,0,0,16.45-5.42,16.6,16.6,0,0,0,3.47-17.27,16.9,16.9,0,0,0-9.59-10.28,18.31,18.31,0,0,1-8.13-6.51c-.68-1-1.23-2.12-1.88-3.27Zm84.39,42.37H11.8a6.59,6.59,0,0,0,6.47,5.34c2.22,0,4.44,0,6.66,0h67.5A6.32,6.32,0,0,0,98.93,284.85ZM22.21,236.76a2.11,2.11,0,0,0-.05-.37q-2.34-6.44-4.69-12.87c-.55-1.53-.42-1.84,1.05-2.52a4.6,4.6,0,0,0,2.81-5.12,4.81,4.81,0,0,0-9.19-.95c-.68,1.65-1,1.76-2.58,1a4.83,4.83,0,0,0-5.79,1,4.89,4.89,0,0,0-.54,5.77,5,5,0,0,0,5.63,2c1.48-.43,1.89-.24,2.41,1.13,1.48,3.9,3,7.8,4.44,11.7.16.43.35.84.57,1.32Zm59.3,56.08h-52v3.08h52Z"/></g></g></g></g></svg>