<svg xmlns="http://www.w3.org/2000/svg" viewBox="0 0 99.62 100.94"><defs><style>.cls-1{fill:#f65762;}</style></defs><title>pizza</title><g id="Layer_2" data-name="Layer 2"><g id="CONTENT_-_WHAT_IS_MEALSTERS_" data-name="CONTENT - WHAT IS MEALSTERS?"><g id="ICONS"><g id="pizza"><path class="cls-1" d="M99.62,60.77c0,2.09,0,2.17-1.64,2.83Q53.58,81.95,9.21,100.31c-4.77,2-8.73-1-9.17-4.7a8.68,8.68,0,0,1,.63-4C5.76,78.51,10.93,65.46,16.08,52.4q10-25.44,20-50.87A2,2,0,0,1,38.32,0,38.82,38.82,0,0,1,51.56,2.89c8.56,3.33,15.9,8.56,22.68,14.65A90.93,90.93,0,0,1,92.89,40.1a50.92,50.92,0,0,1,6.45,17.69c0,.25.07.49.1.74C99.51,59.38,99.58,60.23,99.62,60.77ZM35.57,14c-.88.06-1.59-.21-2,.87Q18.29,53.79,2.94,92.66a7.06,7.06,0,0,0-.46,1.63c-.34,2.62,2.4,5.07,5.68,3.71Q46.32,82.16,84.55,66.46a1.66,1.66,0,0,0,1.18-2A38,38,0,0,0,82,51.49c-4.11-8.72-10.16-15.94-17.22-22.4a63,63,0,0,0-20.2-13A34.93,34.93,0,0,0,35.57,14ZM88.41,64.84C91,63.79,93.48,62.71,96,61.75A1.36,1.36,0,0,0,97,60a46.16,46.16,0,0,0-5.2-16.44A84.91,84.91,0,0,0,74.19,20.91c-6.68-6.31-14-11.67-22.55-15.23a41.07,41.07,0,0,0-11.9-3.11c-.89-.09-1.41.05-1.73,1-.6,1.81-1.38,3.57-2.07,5.35-.32.81-.62,1.63-.94,2.47,1.25.15,2.39.24,3.5.42a44.41,44.41,0,0,1,16.59,6.64,84.39,84.39,0,0,1,24.6,23.72,49.13,49.13,0,0,1,7.92,17.54C88,61.38,88.14,63.07,88.41,64.84Z"/><path class="cls-1" d="M54.43,49.11a8.86,8.86,0,1,1,17.72,0,8.86,8.86,0,0,1-17.72,0Zm2.52,0a6.33,6.33,0,1,0,6.34-6.39A6.38,6.38,0,0,0,57,49.06Z"/><path class="cls-1" d="M31.39,60.09a7.65,7.65,0,1,1,7.7-7.62A7.67,7.67,0,0,1,31.39,60.09Zm-5.06-7.72a5.11,5.11,0,0,0,10.22.1,5.11,5.11,0,0,0-10.22-.1Z"/><path class="cls-1" d="M35,65.81a6.78,6.78,0,0,1,6.86,6.78,6.82,6.82,0,1,1-13.63,0A6.75,6.75,0,0,1,35,65.81Zm-4.22,6.83a4.25,4.25,0,0,0,4.29,4.24,4.27,4.27,0,1,0-4.29-4.24Z"/><path class="cls-1" d="M40.59,42.22a6.74,6.74,0,0,1-6.8-6.48,6.86,6.86,0,0,1,6.73-7.15,6.93,6.93,0,0,1,6.89,6.71A6.78,6.78,0,0,1,40.59,42.22Zm4.28-6.82a4.38,4.38,0,0,0-4.28-4.28,4.29,4.29,0,1,0,4.28,4.28Z"/><path class="cls-1" d="M10.52,83.51a5.79,5.79,0,1,1,5.94,5.79A5.73,5.73,0,0,1,10.52,83.51Zm2.54-.13a3.25,3.25,0,1,0,3.36-3.11A3.2,3.2,0,0,0,13.06,83.38Z"/><path class="cls-1" d="M54.27,60.5a5.79,5.79,0,1,1-5.78,5.82A5.75,5.75,0,0,1,54.27,60.5Zm3.26,5.77a3.25,3.25,0,1,0-6.49,0,3.25,3.25,0,0,0,6.49,0Z"/></g></g></g></g></svg>