<svg xmlns="http://www.w3.org/2000/svg" viewBox="0 0 261.96 355.8"><defs><style>.cls-1,.cls-2{fill:none;}.cls-1,.cls-2,.cls-3{stroke:#fff;stroke-miterlimit:10;}.cls-1{stroke-width:3px;}.cls-2{stroke-width:4px;}.cls-3,.cls-4{fill:#fff;}.cls-3{stroke-width:0.8px;}</style></defs><title>step2</title><g id="Layer_2" data-name="Layer 2"><g id="CONTENT_-_HOW_DOES_MEALSTERS_WORK_" data-name="CONTENT - HOW DOES MEALSTERS WORK?"><g id="STEP_2" data-name="STEP 2"><g id="STEP_2_ICON" data-name="STEP 2 ICON"><rect class="cls-1" x="1.5" y="1.5" width="258.96" height="352.8" rx="24.51" ry="24.51"/><line class="cls-1" x1="1.5" y1="117.81" x2="24.34" y2="117.81"/><line class="cls-2" x1="237.11" y1="117.81" x2="259.95" y2="117.81"/><g id="Z1b4K7.tif"><path class="cls-3" d="M175.93,60.64c0,1.54,0,1.6-1.21,2.09q-32.68,13.5-65.36,27c-3.51,1.46-6.43-.77-6.75-3.45a6.56,6.56,0,0,1,.46-3c3.75-9.64,7.56-19.25,11.36-28.86Q121.81,35.75,129.17,17a1.51,1.51,0,0,1,1.63-1.12A28.65,28.65,0,0,1,140.55,18a55,55,0,0,1,16.69,10.79A66.91,66.91,0,0,1,171,45.42a37.57,37.57,0,0,1,4.74,13c0,.18.06.36.08.54C175.85,59.62,175.9,60.24,175.93,60.64ZM128.78,26.21c-.65,0-1.18-.15-1.49.64Q116.06,55.5,104.75,84.12a5.12,5.12,0,0,0-.34,1.2,2.85,2.85,0,0,0,4.18,2.73q28.1-11.65,56.25-23.22a1.23,1.23,0,0,0,.87-1.51A28.09,28.09,0,0,0,163,53.81a53.19,53.19,0,0,0-12.68-16.49,46.32,46.32,0,0,0-14.88-9.56A26,26,0,0,0,128.78,26.21Zm38.9,37.43c1.89-.78,3.73-1.57,5.61-2.28A1,1,0,0,0,174,60.1,33.91,33.91,0,0,0,170.2,48a62.56,62.56,0,0,0-13-16.7,55.38,55.38,0,0,0-16.6-11.21,30.21,30.21,0,0,0-8.76-2.29c-.66-.07-1,0-1.28.75-.44,1.33-1,2.63-1.53,3.94-.23.6-.45,1.2-.68,1.82.92.11,1.75.17,2.57.31a32.65,32.65,0,0,1,12.21,4.89A62,62,0,0,1,161.26,47a36.16,36.16,0,0,1,5.83,12.92C167.35,61.09,167.48,62.34,167.68,63.64Z"/><path class="cls-3" d="M142.66,52.06a6.52,6.52,0,1,1,13,0,6.52,6.52,0,0,1-13,0Zm1.86,0a4.66,4.66,0,1,0,4.66-4.71A4.7,4.7,0,0,0,144.52,52Z"/><path class="cls-3" d="M125.69,60.14a5.63,5.63,0,1,1,5.67-5.61A5.64,5.64,0,0,1,125.69,60.14ZM122,54.45a3.77,3.77,0,0,0,7.53.08,3.77,3.77,0,0,0-7.53-.08Z"/><path class="cls-3" d="M128.36,64.35a5,5,0,0,1,5,5,5,5,0,1,1-10,0A5,5,0,0,1,128.36,64.35Zm-3.11,5a3.15,3.15,0,0,0,6.29,0,3.15,3.15,0,1,0-6.29,0Z"/><path class="cls-3" d="M132.47,47a5,5,0,0,1-5-4.78,5,5,0,1,1,5,4.78Zm3.15-5a3.15,3.15,0,1,0-6.29.07,3.15,3.15,0,0,0,6.29-.07Z"/><path class="cls-3" d="M110.33,77.38a4.26,4.26,0,1,1,4.37,4.27A4.22,4.22,0,0,1,110.33,77.38Zm1.87-.09A2.39,2.39,0,1,0,114.68,75,2.37,2.37,0,0,0,112.2,77.29Z"/><path class="cls-3" d="M142.54,60.44a4.26,4.26,0,1,1-4.25,4.28A4.23,4.23,0,0,1,142.54,60.44ZM145,64.69a2.4,2.4,0,1,0-4.79,0,2.4,2.4,0,0,0,4.79,0Z"/></g><rect class="cls-1" x="24.34" y="103.34" width="212.77" height="116.93" rx="14.11" ry="14.11"/><rect class="cls-1" x="24.34" y="242.51" width="212.77" height="83.83" rx="15.96" ry="15.96"/><rect class="cls-4" x="44.72" y="127.7" width="156.77" height="14.11" rx="7.06" ry="7.06"/><rect class="cls-4" x="44.72" y="265.42" width="96.41" height="10.44" rx="5.22" ry="5.22"/><rect class="cls-4" x="44.72" y="156.59" width="127.48" height="6.05" rx="3.03" ry="3.03"/><rect class="cls-4" x="44.72" y="172.55" width="59.81" height="6.05" rx="3.03" ry="3.03"/><rect class="cls-4" x="44.72" y="287.82" width="59.81" height="6.05" rx="3.03" ry="3.03"/><rect class="cls-4" x="148.59" y="287.82" width="59.81" height="6.05" rx="3.03" ry="3.03"/><rect class="cls-4" x="111.22" y="287.82" width="28.85" height="6.05" rx="3.03" ry="3.03"/><rect class="cls-4" x="109.85" y="172.55" width="39.89" height="6.05" rx="3.03" ry="3.03"/></g></g></g></g></svg>