<svg xmlns="http://www.w3.org/2000/svg" viewBox="0 0 261.96 355.8"><defs><style>.cls-1{fill:#fff;}.cls-2{fill:none;stroke:#fff;stroke-miterlimit:10;stroke-width:3px;}</style></defs><title>step1</title><g id="Layer_2" data-name="Layer 2"><g id="CONTENT_-_HOW_DOES_MEALSTERS_WORK_" data-name="CONTENT - HOW DOES MEALSTERS WORK?"><g id="STEP_1" data-name="STEP 1"><g id="STEP_1_ICON" data-name="STEP 1 ICON"><g id="Z1b4K7.tif"><path class="cls-1" d="M208.45,179.74c0,3.26,0,3.39-2.57,4.43q-69.37,28.67-138.73,57.36c-7.45,3.1-13.65-1.63-14.33-7.33a13.67,13.67,0,0,1,1-6.29c8-20.44,16-40.84,24.09-61.25q15.67-39.75,31.31-79.51a3.17,3.17,0,0,1,3.45-2.38,60.75,60.75,0,0,1,20.69,4.51c13.37,5.2,24.84,13.38,35.44,22.9,11.47,10.3,21.49,21.81,29.15,35.26A79.69,79.69,0,0,1,208,175.09c.05.38.12.77.15,1.15C208.28,177.57,208.38,178.9,208.45,179.74Zm-100.1-73.08c-1.37.09-2.48-.33-3.15,1.36q-23.85,60.8-47.84,121.56a10.25,10.25,0,0,0-.73,2.54c-.53,4.11,3.76,7.92,8.88,5.8q59.64-24.75,119.38-49.28c1.71-.71,2-1.58,1.85-3.21a59.25,59.25,0,0,0-5.77-20.2c-6.42-13.62-15.88-24.91-26.91-35-9.37-8.57-19.61-15.77-31.58-20.29A54.84,54.84,0,0,0,108.35,106.66Zm82.58,79.44c4-1.65,7.93-3.33,11.91-4.83,1.43-.54,1.71-1.25,1.56-2.69a71.88,71.88,0,0,0-8.12-25.69c-7-13.52-16.56-25-27.57-35.44-10.45-9.87-21.91-18.24-35.25-23.81a64.58,64.58,0,0,0-18.59-4.86c-1.39-.14-2.2.09-2.7,1.59-1,2.84-2.16,5.58-3.25,8.37-.49,1.27-1,2.55-1.46,3.85,2,.23,3.73.38,5.47.66a69.44,69.44,0,0,1,25.92,10.38,132.06,132.06,0,0,1,38.46,37.07c5.76,8.37,10.21,17.4,12.36,27.42C190.23,180.7,190.5,183.34,190.93,186.1Z"/><path class="cls-1" d="M137.82,161.52a13.85,13.85,0,1,1,27.69-.07,13.85,13.85,0,0,1-27.69.07Zm4-.07a9.89,9.89,0,1,0,9.89-10A10,10,0,0,0,141.77,161.45Z"/><path class="cls-1" d="M101.81,178.68a12,12,0,1,1,12-11.91A12,12,0,0,1,101.81,178.68Zm-7.9-12.07a8,8,0,0,0,16,.16,8,8,0,0,0-16-.16Z"/><path class="cls-1" d="M107.47,187.62a10.59,10.59,0,0,1,10.73,10.59,10.65,10.65,0,1,1-21.3,0A10.53,10.53,0,0,1,107.47,187.62Zm-6.59,10.67a6.63,6.63,0,0,0,6.7,6.62,6.67,6.67,0,1,0-6.7-6.62Z"/><path class="cls-1" d="M116.19,150.75a10.52,10.52,0,0,1-10.62-10.14,10.65,10.65,0,1,1,21.28-.68A10.59,10.59,0,0,1,116.19,150.75Zm6.69-10.66a6.83,6.83,0,0,0-6.68-6.69,6.71,6.71,0,1,0,6.68,6.69Z"/><path class="cls-1" d="M69.2,215.27a9,9,0,1,1,9.28,9.06A9,9,0,0,1,69.2,215.27Zm4-.2a5.07,5.07,0,1,0,5.25-4.86A5,5,0,0,0,73.17,215.07Z"/><path class="cls-1" d="M137.58,179.31a9,9,0,1,1-9,9.1A9,9,0,0,1,137.58,179.31Zm5.1,9a5.08,5.08,0,1,0-10.16.06,5.08,5.08,0,0,0,10.16-.06Z"/></g><rect class="cls-2" x="1.5" y="1.5" width="258.96" height="352.8" rx="24.51" ry="24.51"/><rect class="cls-2" x="37.7" y="45.13" width="186.56" height="248.59" rx="12.81" ry="12.81"/><path class="cls-2" d="M244.91,66h15.55a0,0,0,0,1,0,0V272.84a0,0,0,0,1,0,0H244.91a8.23,8.23,0,0,1-8.23-8.23V74.24A8.23,8.23,0,0,1,244.91,66Z"/><path class="cls-2" d="M10.37,66H24.53a0,0,0,0,1,0,0V272.84a0,0,0,0,1,0,0H10.37a8.07,8.07,0,0,1-8.07-8.07V74.08A8.07,8.07,0,0,1,10.37,66Z" transform="translate(26.83 338.85) rotate(180)"/></g></g></g></g></svg>