<svg xmlns="http://www.w3.org/2000/svg" viewBox="0 0 261.96 355.8"><defs><style>.cls-1{fill:none;stroke:#fff;stroke-miterlimit:10;stroke-width:3px;}.cls-2{fill:#fff;}</style></defs><title>step3</title><g id="Layer_2" data-name="Layer 2"><g id="CONTENT_-_HOW_DOES_MEALSTERS_WORK_" data-name="CONTENT - HOW DOES MEALSTERS WORK?"><g id="STEP_3" data-name="STEP 3"><g id="STEP_3_ICON" data-name="STEP 3 ICON"><rect class="cls-1" x="1.5" y="1.5" width="258.96" height="352.8" rx="24.51" ry="24.51"/><g id="wE9wX0.tif"><path class="cls-2" d="M156.47,301.62a42.92,42.92,0,0,1-16.71-4.26,78.52,78.52,0,0,1-24.32-17.54,80.65,80.65,0,0,1-19.37-33.38A46,46,0,0,1,94,231.2c.08-1.73.37-3.44.62-5.16a5.8,5.8,0,0,1,1.67-2.85,54.15,54.15,0,0,1,7.48-6.71c1.34-1,2.71-2.08,4.1-3.07a5.88,5.88,0,0,1,7.89.74,3,3,0,0,1,.52.87q4,10.66,8.06,21.34a8,8,0,0,1-2.25,8.72c-1.65,1.4-3.29,2.82-5,4.16a1.86,1.86,0,0,0-.73,2,16.27,16.27,0,0,0,1.79,5.21,51.06,51.06,0,0,0,9,12.15,32.65,32.65,0,0,0,8.07,6.39A23.94,23.94,0,0,0,138,276a1.08,1.08,0,0,0,1.18-.3c1.68-1.43,3.38-2.85,5.08-4.27a7.43,7.43,0,0,1,7.95-1.13,12.43,12.43,0,0,1,1.9.94c6,3.51,11.93,7.05,17.92,10.52a4.88,4.88,0,0,1,2.42,3.82,5.55,5.55,0,0,1-1.57,4.84,76.61,76.61,0,0,1-11.42,9.78A6.68,6.68,0,0,1,156.47,301.62ZM97,232.72A50.77,50.77,0,0,0,100,248.66a79.33,79.33,0,0,0,36.47,43.54A44.9,44.9,0,0,0,155,298.37a7.48,7.48,0,0,0,5.66-1.32,120.09,120.09,0,0,0,10-8.78,3.07,3.07,0,0,0,.71-1.36,2.16,2.16,0,0,0-.74-2.33c-6.22-3.66-12.45-7.33-18.69-11a4.68,4.68,0,0,0-5.57.23c-1.78,1.49-3.61,2.94-5.32,4.52a3.44,3.44,0,0,1-3.15.81,14.67,14.67,0,0,1-6.38-2.83,52.63,52.63,0,0,1-16.58-19.5,15,15,0,0,1-1.69-6.08,3.93,3.93,0,0,1,1.51-3.6c1.83-1.4,3.53-3,5.29-4.44a4.85,4.85,0,0,0,1.38-5.29q-3.9-10.35-7.8-20.71a1.8,1.8,0,0,0-1.29-1.19,2.83,2.83,0,0,0-2.59.46c-1.73,1.31-3.49,2.57-5.15,4-2,1.69-3.91,3.49-5.84,5.26a3.42,3.42,0,0,0-1.14,2.27C97.36,229.24,97.16,231,97,232.72Z"/></g><g id="Ny9rDz.tif"><path class="cls-2" d="M173.63,55.12V134H94.83V55.12ZM98.13,130.6h72.15V71.49H98.13Zm72.14-62.55V58.5H98.16v9.55Z"/><path class="cls-2" d="M103.18,101.3V87.7h41.26v13.6Zm37.94-10.23H106.56v6.87h34.56Z"/><path class="cls-2" d="M161.83,97.74l3.73,3.63-2.5,2.48c-.34-.38-.75-.87-1.19-1.33-.71-.74-1.45-1.44-2.14-2.17a.69.69,0,0,0-.93-.2,6.9,6.9,0,0,1-9.54-4.93,7,7,0,0,1,10-7.63A6.73,6.73,0,0,1,163,94.06,6.89,6.89,0,0,1,161.83,97.74Zm-9.36-4.07A3.56,3.56,0,0,0,156,97.36a3.6,3.6,0,0,0,3.68-3.51,3.64,3.64,0,0,0-3.62-3.71A3.59,3.59,0,0,0,152.47,93.67Z"/><path class="cls-2" d="M117,115.05v-3.3H139.2v3.3Z"/><path class="cls-2" d="M151.85,120.15v3.28H130.9v-3.28Z"/><path class="cls-2" d="M126.63,120.16v3.27H117v-3.27Z"/><path class="cls-2" d="M142.84,115.06v-3.32h9v3.32Z"/><path class="cls-2" d="M102.8,64.67c0-.14,0-.26,0-.38v-2.9H125v3.28Z"/><path class="cls-2" d="M146.79,63.5A2.51,2.51,0,0,1,144.33,66a2.58,2.58,0,0,1-2.55-2.51,2.51,2.51,0,1,1,5,0Zm-2.53-.84a.77.77,0,0,0-.8.8.83.83,0,1,0,1.66,0A.83.83,0,0,0,144.26,62.66Z"/><path class="cls-2" d="M150.19,63.49A2.5,2.5,0,1,1,152.78,66,2.54,2.54,0,0,1,150.19,63.49Zm3.32,0a.82.82,0,0,0-.82-.86.8.8,0,0,0-.85.76.86.86,0,0,0,.79.9A.82.82,0,0,0,153.51,63.52Z"/><path class="cls-2" d="M158.59,63.49a2.5,2.5,0,0,1,2.5-2.52,2.52,2.52,0,1,1-2.5,2.52Zm2.47.83a.82.82,0,0,0,.85-.83.84.84,0,0,0-.86-.83.82.82,0,0,0-.82.79A.86.86,0,0,0,161.06,64.32Z"/></g><rect class="cls-1" x="61.99" y="22.29" width="144.51" height="144.51" rx="13.56" ry="13.56"/><rect class="cls-1" x="61.99" y="187.39" width="144.51" height="144.51" rx="13.56" ry="13.56"/></g></g></g></g></svg>