<svg xmlns="http://www.w3.org/2000/svg" viewBox="0 0 106.51 106.29"><defs><style>.cls-1{fill:#f65762;}</style></defs><title>stick</title><g id="Layer_2" data-name="Layer 2"><g id="CONTENT_-_WHAT_IS_MEALSTERS_" data-name="CONTENT - WHAT IS MEALSTERS?"><g id="ICONS"><g id="stick"><path class="cls-1" d="M59,49,56.4,52c.28.31.57.65.88,1,3,3,6,5.93,8.92,8.92a5.69,5.69,0,0,1,.63,7.73,5.91,5.91,0,0,1-8.67.46c-3.06-3-6.08-6-9.11-9.08a8.58,8.58,0,0,1-.72-.9L46,62.22c1.88,1.86,3.72,3.62,5.49,5.45a8.8,8.8,0,0,1,.08,12.46,8.36,8.36,0,0,1-11.71.4c-2-1.9-3.89-4-5.72-5.92L17.42,91.29c2.75,5.57,1.9,10.41-2.47,13.4a9.62,9.62,0,0,1-12.31-1.41A9.47,9.47,0,0,1,2.2,90.65a9.62,9.62,0,0,1,12.94-1.76L31.84,72.2c-1.66-1.66-3.46-3.41-5.2-5.2a8.89,8.89,0,0,1-.45-12.39,8.71,8.71,0,0,1,12.51-.26c1.86,1.79,3.65,3.67,5.45,5.5l2.09-2.05.44-.39a4.56,4.56,0,0,1-1.2-.63c-3-3-6-6-9-9a5.6,5.6,0,0,1-1.11-6.6,5.53,5.53,0,0,1,5.57-3.1,6.15,6.15,0,0,1,4,2.14c3.15,3.31,6.33,6.6,9.53,9.94l2.87-2.58c-1.84-1.83-3.74-3.69-5.61-5.59A8.74,8.74,0,1,1,63.9,29.43c1.86,1.75,3.61,3.62,5.41,5.44l2.47-2.53c-3.16-3.12-6.37-6.31-9.61-9.48a6,6,0,0,1-2.07-4.69,5.32,5.32,0,0,1,3.2-4.9,5.21,5.21,0,0,1,6,.73c2.29,2.07,4.41,4.33,6.6,6.51l4,4,2.49-3.13c-1.48-1.47-3.25-3.22-5-5A8.66,8.66,0,0,1,74.84,8a8,8,0,0,1,5.72-6.24A8.43,8.43,0,0,1,89.3,3.63c2,1.83,3.77,3.81,5.79,5.87.76-.8,1.42-1.51,2.1-2.19q3.14-3.16,6.28-6.31c1.15-1.14,1.88-1.29,2.61-.53s.55,1.45-.61,2.61l-7.41,7.45c-.29.29-.56.59-.9,1,1.87,1.85,3.71,3.61,5.48,5.45a8.73,8.73,0,1,1-12.19,12.5c-1.87-1.8-3.64-3.7-5.4-5.49L82.16,26.7c1.62,1.62,3.26,3.29,4.91,4.94s3.22,3.19,4.82,4.8a5.87,5.87,0,0,1,1.78,5.63,5.28,5.28,0,0,1-4,4.12A5.46,5.46,0,0,1,84,44.81q-4.53-4.48-9-9a12.29,12.29,0,0,1-1-1.23L71.5,37.19c1.71,1.71,3.47,3.43,5.2,5.18a8.6,8.6,0,0,1,2.49,8.36,8.27,8.27,0,0,1-5.76,6.38,7.94,7.94,0,0,1-8.37-1.86C62.94,53.24,61,51.07,59,49ZM46.1,79.65A5.79,5.79,0,0,0,51,76.16a5.47,5.47,0,0,0-1.27-6.47q-6.49-6.59-13.1-13.08a6.65,6.65,0,0,0-2.24-1.47,5.6,5.6,0,0,0-6.7,2.28,5.9,5.9,0,0,0,.84,7.46Q35,71.47,41.58,78A5.82,5.82,0,0,0,46.1,79.65ZM77.69,9.12a5.76,5.76,0,0,0,1.6,4.51c4.46,4.45,8.91,8.93,13.4,13.35A6.13,6.13,0,0,0,95,28.4a5.74,5.74,0,0,0,6.79-2.67,5.61,5.61,0,0,0-1-7Q95.49,13.41,90.19,8.14A38.65,38.65,0,0,0,87,5.07a5.23,5.23,0,0,0-5.92-.63A5.4,5.4,0,0,0,77.69,9.12Zm-.93,39.51a5.32,5.32,0,0,0-1.56-4c-4.43-4.48-8.86-9-13.34-13.4a5.61,5.61,0,0,0-8-.21,5.88,5.88,0,0,0-.21,8.35q6.65,6.81,13.46,13.46a5.17,5.17,0,0,0,6.08,1A5.44,5.44,0,0,0,76.76,48.63ZM65.62,65.45a12,12,0,0,0-1.44-2q-10.49-10.58-21-21.06a6.54,6.54,0,0,0-1.33-1.09,2.7,2.7,0,0,0-4,1.58,2.94,2.94,0,0,0,1,3.22q8.91,8.82,17.79,17.66c1.41,1.39,2.79,2.8,4.22,4.16a2.66,2.66,0,0,0,3.19.53C65,67.94,65.64,67.2,65.62,65.45ZM88.1,43.12c1.57-.12,2.47-.65,3-1.7C91.69,40,91,39,90,38Q79.2,27.18,68.37,16.35C67,14.93,65.32,14.9,64,16.2a2.76,2.76,0,0,0,.22,4.16q11.06,11,22.18,21.85A5.88,5.88,0,0,0,88.1,43.12ZM2.94,96.77a6.46,6.46,0,0,0,6.52,6.64,6.69,6.69,0,1,0-6.52-6.64Z"/><path class="cls-1" d="M45,25.74A6.39,6.39,0,0,1,39,21c-.64-2.41.56-4.88,3-6.5a5.65,5.65,0,0,0,1.84-2.18,2.4,2.4,0,0,0-.59-2.94,2.76,2.76,0,0,0-2.95-.73c-.23.09-.52.26-.7.19-.59-.24-1.45-.46-1.61-.9a1.91,1.91,0,0,1,.67-1.69,5.33,5.33,0,0,1,6.48.89c1.89,1.71,2.69,4.51,1.58,6.48a12.25,12.25,0,0,1-2.75,3c-.82.71-1.71,1.28-1.9,2.45a3,3,0,0,0,3.71,3.45c.32-.07.68-.31.94-.22.56.2,1.4.48,1.5.89a2,2,0,0,1-.62,1.72A10,10,0,0,1,45,25.74Z"/><path class="cls-1" d="M27,24.77a5.81,5.81,0,0,1,3-4.41,3.41,3.41,0,0,0,2-3,3,3,0,0,0-3.74-3c-1.74.37-2.41.16-2.61-.86s.47-1.67,2-2.05a6.14,6.14,0,0,1,7,3.52,5.77,5.77,0,0,1-2.28,7.23c-.34.23-.73.39-1.07.62a3,3,0,0,0-1,3.83,3,3,0,0,0,3.46,1.69l.6-.16a1.39,1.39,0,0,1,1.93.79c.36,1-.2,1.54-1,1.93C31.53,32.59,27,29.51,27,24.77Z"/></g></g></g></g></svg>