<svg xmlns="http://www.w3.org/2000/svg" viewBox="0 0 110.43 112.29"><defs><style>.cls-1{fill:#fff;}</style></defs><title>story-icon</title><g id="Layer_2" data-name="Layer 2"><g id="CONTENT_-_WHAT_IS_MEALSTERS_" data-name="CONTENT - WHAT IS MEALSTERS?"><g id="r1GlAy.tif"><path class="cls-1" d="M45,71.92A27.34,27.34,0,0,1,40.1,87.43a60.06,60.06,0,0,1-4.39,5.2q-6.2,7-12.43,14c-.8.92-.81.92-1.61,0-5.46-6.17-11-12.29-16.35-18.53A21.35,21.35,0,0,1,1.21,80a27.21,27.21,0,0,1,.41-17.29C3.88,56.44,7.8,51.41,14,48.64a19.69,19.69,0,0,1,19.52,1.48C39.66,54,43,59.83,44.38,66.85,44.71,68.52,44.77,70.23,45,71.92ZM22.3,101.76l.43.28a7,7,0,0,1,.7-1.12c3.76-4.27,7.49-8.55,11.31-12.76a23.23,23.23,0,0,0,6.31-17.75A21.43,21.43,0,0,0,32.57,54a16.8,16.8,0,0,0-20.7.37C6.32,59,3.82,65,3.8,72.16A21.53,21.53,0,0,0,7.54,84.75a65.33,65.33,0,0,0,4.85,5.8C15.68,94.3,19,98,22.3,101.76Z"/><path class="cls-1" d="M90.39,46c-3-3.33-5.69-6.38-8.37-9.48a68.4,68.4,0,0,1-5.75-7c-5.26-8-3.49-19.7,3.92-25.77a15.29,15.29,0,0,1,20-.1c5.46,4.48,7.45,10.45,6.87,17.37A20.11,20.11,0,0,1,101.72,33c-3.65,4.07-7.24,8.18-10.85,12.27A5.53,5.53,0,0,0,90.39,46Zm-.13-5.82c.31-.34.53-.56.73-.79,2.69-3,5.36-6,8.06-9.06A16.6,16.6,0,0,0,100.9,10c-4.65-7.28-14-8.53-20.09-1.58A16.51,16.51,0,0,0,80.35,29c1.13,1.44,2.39,2.78,3.6,4.15C86,35.46,88.09,37.79,90.26,40.22Z"/><path class="cls-1" d="M42.17,112.28c-.6,0-1.2,0-1.8,0a1.84,1.84,0,0,1-1.84-1.68,1.79,1.79,0,0,1,1.58-2,33.48,33.48,0,0,1,4.25,0,1.76,1.76,0,0,1,1.61,2,1.85,1.85,0,0,1-1.81,1.72h-2Z"/><path class="cls-1" d="M31,112.28c-.63,0-1.27,0-1.9,0a1.82,1.82,0,0,1-1.78-1.73,1.78,1.78,0,0,1,1.62-2,36.26,36.26,0,0,1,4.17,0,1.8,1.8,0,0,1,1.65,2,1.85,1.85,0,0,1-1.87,1.76C32.26,112.3,31.63,112.28,31,112.28Z"/><path class="cls-1" d="M67.34,45c-.6,0-1.19,0-1.79,0a1.88,1.88,0,1,1,0-3.75c1.26,0,2.52,0,3.77,0a1.87,1.87,0,0,1,0,3.73c-.66,0-1.32,0-2,0Z"/><path class="cls-1" d="M78.63,41.21c.63,0,1.26,0,1.89,0A1.87,1.87,0,0,1,80.59,45c-1.32.06-2.65,0-4,0a1.82,1.82,0,0,1-1.75-1.88,1.84,1.84,0,0,1,1.86-1.86C77.36,41.18,78,41.21,78.63,41.21Z"/><path class="cls-1" d="M75.91,112.28c-.63,0-1.26,0-1.89,0a1.85,1.85,0,0,1-1.84-1.8,1.82,1.82,0,0,1,1.71-1.92,39.47,39.47,0,0,1,4.07,0,1.84,1.84,0,0,1,1.7,1.93,1.88,1.88,0,0,1-1.85,1.79C77.18,112.3,76.54,112.28,75.91,112.28Z"/><path class="cls-1" d="M80.19,58.06c.63,0,1.26,0,1.89,0a1.79,1.79,0,0,1,1.81,1.7,1.74,1.74,0,0,1-1.59,2,31.72,31.72,0,0,1-4.25,0,1.73,1.73,0,0,1-1.6-1.89,1.83,1.83,0,0,1,1.84-1.78C78.92,58,79.55,58.06,80.19,58.06Z"/><path class="cls-1" d="M64.71,112.28c-.63,0-1.27,0-1.9,0A1.88,1.88,0,0,1,61,110.49a1.83,1.83,0,0,1,1.7-1.93,36.83,36.83,0,0,1,4.07,0,1.84,1.84,0,0,1,1.72,1.91,1.87,1.87,0,0,1-1.84,1.81C66,112.3,65.34,112.28,64.71,112.28Z"/><path class="cls-1" d="M69,58.06c.63,0,1.26,0,1.89,0a1.81,1.81,0,0,1,1.78,1.74,1.71,1.71,0,0,1-1.55,1.92,33.08,33.08,0,0,1-4.34,0,1.73,1.73,0,0,1-1.55-1.93A1.8,1.8,0,0,1,67,58.06C67.68,58,68.34,58.06,69,58.06Z"/><path class="cls-1" d="M91.42,58.05c.63,0,1.26,0,1.89,0a1.84,1.84,0,0,1,1.83,1.8,1.79,1.79,0,0,1-1.63,1.89,36.26,36.26,0,0,1-4.17,0,1.81,1.81,0,0,1-1.69-1.93,1.88,1.88,0,0,1,1.88-1.76C90.16,58,90.79,58.05,91.42,58.05Z"/><path class="cls-1" d="M60,88.45c.59.36,1,.58,1.42.87.76.55,1.46,1.19,2.24,1.71a2,2,0,0,1,.93,2.72,1.77,1.77,0,0,1-2.69.57,25.68,25.68,0,0,1-3.25-2.55,1.53,1.53,0,0,1-.24-2.08A7.37,7.37,0,0,1,60,88.45Z"/><path class="cls-1" d="M53.43,112.27c-.63,0-1.26,0-1.89,0a1.87,1.87,0,0,1-1.81-1.83,1.8,1.8,0,0,1,1.66-1.87,34,34,0,0,1,4.16,0,1.8,1.8,0,0,1,1.65,2,1.83,1.83,0,0,1-1.78,1.75C54.76,112.31,54.09,112.28,53.43,112.27Z"/><path class="cls-1" d="M110.43,68.56c-.13.73-.23,1.64-.45,2.52a1.86,1.86,0,1,1-3.63-.83,29.12,29.12,0,0,0,.19-3.09,1.88,1.88,0,0,1,1.67-2,1.84,1.84,0,0,1,2,1.67C110.34,67.31,110.36,67.85,110.43,68.56Z"/><path class="cls-1" d="M83.38,95.43c-.66,0-1.33,0-2,0a1.81,1.81,0,0,1-1.73-1.69,1.72,1.72,0,0,1,1.52-2,34.47,34.47,0,0,1,4.43,0,1.69,1.69,0,0,1,1.49,1.88,1.75,1.75,0,0,1-1.65,1.75c-.69,0-1.39,0-2.08,0Z"/><path class="cls-1" d="M72.11,95.43c-.63,0-1.26,0-1.89,0a1.77,1.77,0,0,1-1.76-1.74A1.72,1.72,0,0,1,70,91.76a35.45,35.45,0,0,1,4.25,0,1.75,1.75,0,0,1,1.63,2,1.8,1.8,0,0,1-1.8,1.71C73.44,95.45,72.78,95.43,72.11,95.43Z"/><path class="cls-1" d="M67.85,74.91c.63,0,1.26,0,1.89,0a1.87,1.87,0,0,1,1.88,1.84,1.79,1.79,0,0,1-1.77,1.84c-1.32.06-2.64.06-4,0a1.8,1.8,0,0,1-1.74-1.86,1.88,1.88,0,0,1,1.91-1.82c.6,0,1.2,0,1.79,0Z"/><path class="cls-1" d="M101,57.87c1.4.52,2.85,1,4.21,1.57a1.74,1.74,0,0,1,.81,2.42,2,2,0,0,1-2.44.9c-1.07-.35-2.15-.67-3.23-1a1.88,1.88,0,0,1-1.42-2.07A2.28,2.28,0,0,1,101,57.87Z"/><path class="cls-1" d="M97.54,97a7.6,7.6,0,0,1-1.34,1.52,1.64,1.64,0,0,1-2-.31c-.88-.73-1.78-1.46-2.69-2.17a1.9,1.9,0,0,1-.6-2.28,1.77,1.77,0,0,1,2.09-1A8.32,8.32,0,0,1,97.13,96a2.87,2.87,0,0,1,.24.8Z"/><path class="cls-1" d="M58.47,61.86c-1-.24-2-.41-3-.73a1.81,1.81,0,0,1-1.28-2.36,1.94,1.94,0,0,1,2.44-1.18,16.59,16.59,0,0,0,2.6.43c1.47.1,2.31.77,2.26,2s-.91,1.8-2.32,1.79l-.66,0Z"/><path class="cls-1" d="M87.07,112.28c-.64,0-1.27,0-1.9,0a1.78,1.78,0,0,1-1.74-1.67,1.66,1.66,0,0,1,1.38-1.95,25.2,25.2,0,0,1,4.43,0,1.8,1.8,0,0,1,1.56,2,1.84,1.84,0,0,1-1.93,1.68c-.6,0-1.2,0-1.8,0Z"/><path class="cls-1" d="M99,104a9.26,9.26,0,0,1-2.24,4.59,1.81,1.81,0,0,1-2.42.06,1.86,1.86,0,0,1-.44-2.31c.51-1,1-2.08,1.48-3.13A1.88,1.88,0,0,1,99,104Z"/><path class="cls-1" d="M100.37,78.66a8.34,8.34,0,0,1-1.12-.12,1.83,1.83,0,0,1-1.39-2,1.86,1.86,0,0,1,1.69-1.64c1.08-.16,2.17-.35,3.24-.59a1.89,1.89,0,0,1,2.27,1.05,1.76,1.76,0,0,1-.93,2.38,38.22,38.22,0,0,1-3.7,1Z"/><path class="cls-1" d="M61.5,80.19s0,.07,0,.09c-.67,1.54-1.28,3.11-2.06,4.6a1.45,1.45,0,0,1-1.87.45,1.6,1.6,0,0,1-1.22-1.62,7.77,7.77,0,0,1,2-4.86,1.66,1.66,0,0,1,2-.37A1.75,1.75,0,0,1,61.5,80.19Z"/><path class="cls-1" d="M52.33,51.24c.11.71.19,1.43.35,2.13a1.91,1.91,0,0,1-1.27,2.54,1.8,1.8,0,0,1-2.32-1.59,18.84,18.84,0,0,1-.33-3.82,1.77,1.77,0,0,1,2-1.91c1.13.09,1.78.94,1.71,2.26l0,.37Z"/><path class="cls-1" d="M57.92,41.3a1.86,1.86,0,0,1,1.89,1.53,1.76,1.76,0,0,1-1.25,2.06c-1.12.4-2.24.79-3.36,1.2a1.93,1.93,0,0,1-2.31-.79,1.72,1.72,0,0,1,.53-2.42c1.42-.71,2.93-1.23,4.4-1.83Z"/><path class="cls-1" d="M79.18,74.89c.63,0,1.26,0,1.89,0a1.88,1.88,0,0,1,1.8,1.84,1.84,1.84,0,0,1-1.78,1.84c-1.3,0-2.59,0-3.88,0a1.85,1.85,0,0,1,0-3.69C77.85,74.87,78.51,74.89,79.18,74.89Z"/><path class="cls-1" d="M90.4,74.9c.63,0,1.26,0,1.89,0a1.84,1.84,0,0,1,1.79,1.83,1.8,1.8,0,0,1-1.77,1.85c-1.32,0-2.65,0-4,0a1.78,1.78,0,0,1-1.74-1.87,1.82,1.82,0,0,1,1.81-1.81C89.07,74.87,89.73,74.9,90.4,74.9Z"/><path class="cls-1" d="M33.69,69.35A11.22,11.22,0,1,1,22.5,58,11.23,11.23,0,0,1,33.69,69.35ZM22.46,61.78a7.47,7.47,0,1,0,.08,14.94,7.47,7.47,0,1,0-.08-14.94Z"/><path class="cls-1" d="M90.74,28.12A10.28,10.28,0,1,1,101,17.82,10.34,10.34,0,0,1,90.74,28.12Zm0-3.77a6.52,6.52,0,0,0,6.52-6.48,6.59,6.59,0,0,0-6.57-6.57,6.53,6.53,0,1,0,0,13.05Z"/></g></g></g></svg>